<?xml version="1.0" encoding="UTF-8" standalone="no"?>
<!-- Created with Inkscape (http://www.inkscape.org/) -->

<svg
   xmlns:dc="http://purl.org/dc/elements/1.1/"
   xmlns:cc="http://creativecommons.org/ns#"
   xmlns:rdf="http://www.w3.org/1999/02/22-rdf-syntax-ns#"
   xmlns:svg="http://www.w3.org/2000/svg"
   xmlns="http://www.w3.org/2000/svg"
   xmlns:sodipodi="http://sodipodi.sourceforge.net/DTD/sodipodi-0.dtd"
   xmlns:inkscape="http://www.inkscape.org/namespaces/inkscape"
   width="180mm"
   height="180mm"
   viewBox="0 0 180 180"
   version="1.1"
   id="svg8"
   inkscape:version="0.92.5 (2060ec1f9f, 2020-04-08)"
   sodipodi:docname="icon.svg">
  <defs
     id="defs2" />
  <sodipodi:namedview
     id="base"
     pagecolor="#ffffff"
     bordercolor="#666666"
     borderopacity="1.0"
     inkscape:pageopacity="0.0"
     inkscape:pageshadow="2"
     inkscape:zoom="0.49497475"
     inkscape:cx="755.07051"
     inkscape:cy="293.55744"
     inkscape:document-units="mm"
     inkscape:current-layer="layer1"
     showgrid="false"
     inkscape:window-width="1366"
     inkscape:window-height="705"
     inkscape:window-x="-8"
     inkscape:window-y="-8"
     inkscape:window-maximized="1" />
  <metadata
     id="metadata5">
    <rdf:RDF>
      <cc:Work
         rdf:about="">
        <dc:format>image/svg+xml</dc:format>
        <dc:type
           rdf:resource="http://purl.org/dc/dcmitype/StillImage" />
        <dc:title></dc:title>
      </cc:Work>
    </rdf:RDF>
  </metadata>
  <g
     inkscape:label="Calque 1"
     inkscape:groupmode="layer"
     id="layer1"
     transform="translate(0,-117)">
    <rect
       style="fill:#000000;stroke-width:0.26458332"
       id="rect10"
       width="180"
       height="180"
       x="0"
       y="117"
       ry="20"
       rx="20" />
    <rect
       style="fill:#ffffff;stroke-width:0.26458332"
       id="rect17"
       width="150"
       height="150"
       x="15"
       y="132"
       ry="20"
       rx="20" />
    <path
       style="fill:#000000;stroke:#000000;stroke-width:0.26458332px;stroke-linecap:butt;stroke-linejoin:miter;stroke-opacity:1"
       d="M 15,282 165,132"
       id="path19"
       inkscape:connector-curvature="0" />
    <path
       style="fill:#000000;stroke-width:0.38842827"
       d="m 28.805857,283.17326 c -2.452958,-0.60654 -6.407103,-2.57119 -8.118841,-4.0339 l -1.259924,-1.07663 70.424104,-71.33047 70.424104,-71.33047 0.99803,0.94974 c 1.5612,1.48569 3.91179,6.62499 4.40643,9.63422 0.31934,1.94272 0.41004,18.92221 0.33068,61.90387 l -0.10935,59.22689 -0.89839,2.54108 c -2.15279,6.08924 -6.60888,10.67891 -12.60938,12.9874 l -2.31561,0.89085 -59.627121,0.0682 c -47.22677,0.054 -60.046713,-0.0356 -61.644732,-0.43074 z"
       id="path21"
       inkscape:connector-curvature="0" />
    <g
       id="g50"
       transform="translate(-8.2853554)">
      <rect
         ry="0"
         rx="0"
         y="145.0864"
         x="60.355938"
         height="50"
         width="15"
         id="rect25"
         style="fill:#000000;stroke-width:0.26458332" />
      <rect
         transform="rotate(90)"
         ry="0"
         rx="0"
         y="-92.351921"
         x="162.81424"
         height="50"
         width="15"
         id="rect25-5"
         style="fill:#000000;stroke-width:0.26458332" />
    </g>
    <rect
       style="fill:#ffffff;stroke-width:0.26458332"
       id="rect25-7"
       width="15"
       height="50"
       x="235.77882"
       y="-145.80582"
       rx="0"
       ry="0"
       transform="rotate(90)" />
  </g>
</svg>
